<?xml version="1.0" encoding="UTF-8"?>
<!DOCTYPE svg PUBLIC "-//W3C//DTD SVG 1.1//EN" "http://www.w3.org/Graphics/SVG/1.1/DTD/svg11.dtd">
<svg xmlns="http://www.w3.org/2000/svg" version="1.1" width="32px" height="32px" style="shape-rendering:geometricPrecision; text-rendering:geometricPrecision; image-rendering:optimizeQuality; fill-rule:evenodd; clip-rule:evenodd" xmlns:xlink="http://www.w3.org/1999/xlink">
<g><path style="opacity:1" fill="#c2cdd1" d="M 15.5,-0.5 C 15.8333,-0.5 16.1667,-0.5 16.5,-0.5C 17.1667,0.833333 18.1667,1.83333 19.5,2.5C 19.7148,4.17876 19.0481,5.17876 17.5,5.5C 16.609,4.89022 15.609,4.55688 14.5,4.5C 13.9033,4.2648 13.5699,3.7648 13.5,3C 13.9783,1.69736 14.645,0.530694 15.5,-0.5 Z"/></g>
<g><path style="opacity:0.994" fill="#9b9a99" d="M 8.5,2.5 C 8.5,3.16667 8.5,3.83333 8.5,4.5C 6.19438,4.00745 3.86105,3.67412 1.5,3.5C 3.01341,2.49025 5.34675,2.15691 8.5,2.5 Z"/></g>
<g><path style="opacity:1" fill="#60605d" d="M 29.5,3.5 C 29.1667,4.83333 28.8333,6.16667 28.5,7.5C 27.7777,6.44886 26.7777,5.78219 25.5,5.5C 23.6214,5.60682 23.2881,5.10682 24.5,4C 26.1341,3.50649 27.8008,3.33982 29.5,3.5 Z"/></g>
<g><path style="opacity:1" fill="#b4b8bd" d="M 13.5,-0.5 C 14.1667,-0.5 14.8333,-0.5 15.5,-0.5C 14.645,0.530694 13.9783,1.69736 13.5,3C 13.5699,3.7648 13.9033,4.2648 14.5,4.5C 13.8333,5.16667 13.1667,5.83333 12.5,6.5C 12.1667,6.5 11.8333,6.5 11.5,6.5C 10.438,4.90078 10.438,3.23411 11.5,1.5C 12.5,1.16667 13.1667,0.5 13.5,-0.5 Z"/></g>
<g><path style="opacity:1" fill="#b5c0c2" d="M 19.5,2.5 C 20.609,2.55688 21.609,2.89022 22.5,3.5C 22.5,4.5 22.5,5.5 22.5,6.5C 20.5853,6.78448 18.9187,6.45115 17.5,5.5C 19.0481,5.17876 19.7148,4.17876 19.5,2.5 Z"/></g>
<g><path style="opacity:1" fill="#c7c8ca" d="M 11.5,1.5 C 10.438,3.23411 10.438,4.90078 11.5,6.5C 11.1667,6.5 10.8333,6.5 10.5,6.5C 8.80081,6.66018 7.13414,6.49351 5.5,6C 6.73747,5.76791 7.73747,5.26791 8.5,4.5C 8.5,3.83333 8.5,3.16667 8.5,2.5C 9.60895,2.44312 10.609,2.10978 11.5,1.5 Z"/></g>
<g><path style="opacity:1" fill="#878885" d="M 29.5,3.5 C 27.8008,3.33982 26.1341,3.50649 24.5,4C 23.2881,5.10682 23.6214,5.60682 25.5,5.5C 25.5,6.16667 25.5,6.83333 25.5,7.5C 25.1667,7.5 24.8333,7.5 24.5,7.5C 24.1583,6.66175 23.4916,6.32842 22.5,6.5C 22.5,5.5 22.5,4.5 22.5,3.5C 24.6794,2.89679 26.846,2.23012 29,1.5C 29.4643,2.09442 29.631,2.76109 29.5,3.5 Z"/></g>
<g><path style="opacity:1" fill="#656366" d="M 1.5,3.5 C 3.86105,3.67412 6.19438,4.00745 8.5,4.5C 7.73747,5.26791 6.73747,5.76791 5.5,6C 7.13414,6.49351 8.80081,6.66018 10.5,6.5C 10.5,7.16667 10.1667,7.5 9.5,7.5C 9.16667,7.5 8.83333,7.5 8.5,7.5C 7.50838,7.32842 6.84171,7.66175 6.5,8.5C 5.16667,8.5 3.83333,8.5 2.5,8.5C 1.962,6.88277 1.62867,5.2161 1.5,3.5 Z"/></g>
<g><path style="opacity:1" fill="#1e2146" d="M 10.5,6.5 C 10.8333,6.5 11.1667,6.5 11.5,6.5C 11.8333,6.5 12.1667,6.5 12.5,6.5C 13.4916,6.32842 14.1583,6.66175 14.5,7.5C 13.5,8.16667 12.5,8.83333 11.5,9.5C 10.1667,9.5 9.5,8.83333 9.5,7.5C 10.1667,7.5 10.5,7.16667 10.5,6.5 Z"/></g>
<g><path style="opacity:1" fill="#2c2c43" d="M 14.5,4.5 C 15.609,4.55688 16.609,4.89022 17.5,5.5C 18.9187,6.45115 20.5853,6.78448 22.5,6.5C 23.4916,6.32842 24.1583,6.66175 24.5,7.5C 24.1667,7.5 23.8333,7.5 23.5,7.5C 21.2188,7.07729 19.5521,7.74395 18.5,9.5C 18.1667,9.5 17.8333,9.5 17.5,9.5C 16.7095,8.59872 15.7095,7.93205 14.5,7.5C 14.1583,6.66175 13.4916,6.32842 12.5,6.5C 13.1667,5.83333 13.8333,5.16667 14.5,4.5 Z"/></g>
<g><path style="opacity:1" fill="#2d2c47" d="M 23.5,7.5 C 23.5,7.83333 23.5,8.16667 23.5,8.5C 23.5,11.5 23.5,14.5 23.5,17.5C 23.1667,17.5 22.8333,17.5 22.5,17.5C 22.5,16.8333 22.1667,16.5 21.5,16.5C 21.2969,14.9557 20.6302,13.6223 19.5,12.5C 20.7768,11.0783 20.4435,10.0783 18.5,9.5C 19.5521,7.74395 21.2188,7.07729 23.5,7.5 Z"/></g>
<g><path style="opacity:0.478" fill="#4a4948" d="M 25.5,5.5 C 26.7777,5.78219 27.7777,6.44886 28.5,7.5C 27.9346,9.95209 27.2679,12.2854 26.5,14.5C 26.2167,11.8348 25.8834,9.50142 25.5,7.5C 25.5,6.83333 25.5,6.16667 25.5,5.5 Z"/></g>
<g><path style="opacity:1" fill="#292b4a" d="M 8.5,7.5 C 8.83333,7.5 9.16667,7.5 9.5,7.5C 9.5,8.83333 10.1667,9.5 11.5,9.5C 11.4431,10.609 11.1098,11.609 10.5,12.5C 9.66175,12.8417 9.32842,13.5084 9.5,14.5C 8.53178,12.3926 8.19845,10.0593 8.5,7.5 Z"/></g>
<g><path style="opacity:1" fill="#c4a359" d="M 14.5,7.5 C 15.7095,7.93205 16.7095,8.59872 17.5,9.5C 16.5655,10.5676 16.2322,11.901 16.5,13.5C 14.8612,13.0742 13.5279,13.0742 12.5,13.5C 11.5084,13.6716 10.8417,13.3382 10.5,12.5C 11.1098,11.609 11.4431,10.609 11.5,9.5C 12.5,8.83333 13.5,8.16667 14.5,7.5 Z"/></g>
<g><path style="opacity:1" fill="#747070" d="M 2.5,8.5 C 3.83333,8.5 5.16667,8.5 6.5,8.5C 6.99255,10.8056 7.32588,13.139 7.5,15.5C 6.20895,15.2627 5.20895,15.596 4.5,16.5C 3.62949,13.997 2.96282,11.3303 2.5,8.5 Z"/></g>
<g><path style="opacity:1" fill="#2f3150" d="M 8.5,7.5 C 8.19845,10.0593 8.53178,12.3926 9.5,14.5C 9.16667,15.1667 8.83333,15.8333 8.5,16.5C 7.83333,16.5 7.5,16.1667 7.5,15.5C 7.32588,13.139 6.99255,10.8056 6.5,8.5C 6.84171,7.66175 7.50838,7.32842 8.5,7.5 Z"/></g>
<g><path style="opacity:1" fill="#aaa7a2" d="M 23.5,8.5 C 25.4666,12.2623 25.8,16.2623 24.5,20.5C 23.6143,19.675 23.281,18.675 23.5,17.5C 23.5,14.5 23.5,11.5 23.5,8.5 Z"/></g>
<g><path style="opacity:1" fill="#ccb569" d="M 17.5,9.5 C 17.8333,9.5 18.1667,9.5 18.5,9.5C 20.4435,10.0783 20.7768,11.0783 19.5,12.5C 20.6302,13.6223 21.2969,14.9557 21.5,16.5C 20.7784,16.9175 20.2784,17.5842 20,18.5C 19.6174,17.944 19.1174,17.6107 18.5,17.5C 18.1667,17.5 17.8333,17.5 17.5,17.5C 17.7923,14.6239 17.7923,11.9572 17.5,9.5 Z"/></g>
<g><path style="opacity:1" fill="#dcb24a" d="M 17.5,9.5 C 17.7923,11.9572 17.7923,14.6239 17.5,17.5C 16.6554,18.6715 15.9887,20.0048 15.5,21.5C 14.5,21.1667 13.8333,20.5 13.5,19.5C 13.5569,18.391 13.8902,17.391 14.5,16.5C 14.9382,16.5654 15.2716,16.3988 15.5,16C 14.4293,15.1482 13.4293,14.3149 12.5,13.5C 13.5279,13.0742 14.8612,13.0742 16.5,13.5C 16.2322,11.901 16.5655,10.5676 17.5,9.5 Z"/></g>
<g><path style="opacity:1" fill="#ba8f47" d="M 10.5,12.5 C 10.8417,13.3382 11.5084,13.6716 12.5,13.5C 13.4293,14.3149 14.4293,15.1482 15.5,16C 15.2716,16.3988 14.9382,16.5654 14.5,16.5C 12.4352,16.5172 10.4352,16.8505 8.5,17.5C 8.5,17.1667 8.5,16.8333 8.5,16.5C 8.83333,15.8333 9.16667,15.1667 9.5,14.5C 9.32842,13.5084 9.66175,12.8417 10.5,12.5 Z"/></g>
<g><path style="opacity:1" fill="#8f8c8b" d="M 7.5,15.5 C 7.5,16.1667 7.83333,16.5 8.5,16.5C 8.5,16.8333 8.5,17.1667 8.5,17.5C 8.5,18.8333 8.5,20.1667 8.5,21.5C 8.5,21.8333 8.5,22.1667 8.5,22.5C 7.84233,21.6016 7.17566,20.6016 6.5,19.5C 5.61432,20.325 5.28099,21.325 5.5,22.5C 4.53862,20.7354 4.20528,18.7354 4.5,16.5C 5.20895,15.596 6.20895,15.2627 7.5,15.5 Z"/></g>
<g><path style="opacity:1" fill="#29273e" d="M 14.5,16.5 C 13.8902,17.391 13.5569,18.391 13.5,19.5C 12.5041,19.5858 11.6708,19.2524 11,18.5C 10.5357,19.0944 10.369,19.7611 10.5,20.5C 9.83333,20.8333 9.16667,21.1667 8.5,21.5C 8.5,20.1667 8.5,18.8333 8.5,17.5C 10.4352,16.8505 12.4352,16.5172 14.5,16.5 Z"/></g>
<g><path style="opacity:0.137" fill="#6f6e6d" d="M 23.5,8.5 C 23.5,8.16667 23.5,7.83333 23.5,7.5C 23.8333,7.5 24.1667,7.5 24.5,7.5C 24.8333,7.5 25.1667,7.5 25.5,7.5C 25.8834,9.50142 26.2167,11.8348 26.5,14.5C 26.2606,16.4672 26.5939,18.3005 27.5,20C 26.9558,20.7172 26.2891,21.2172 25.5,21.5C 24.5,21.5 23.5,21.5 22.5,21.5C 22.5,20.1667 22.5,18.8333 22.5,17.5C 22.8333,17.5 23.1667,17.5 23.5,17.5C 23.281,18.675 23.6143,19.675 24.5,20.5C 25.8,16.2623 25.4666,12.2623 23.5,8.5 Z"/></g>
<g><path style="opacity:1" fill="#6f4c2d" d="M 17.5,17.5 C 17.8333,17.5 18.1667,17.5 18.5,17.5C 18.7135,19.1439 18.3802,20.6439 17.5,22C 18.756,22.4169 19.4226,23.2502 19.5,24.5C 17.5695,24.2294 16.2362,23.2294 15.5,21.5C 15.9887,20.0048 16.6554,18.6715 17.5,17.5 Z"/></g>
<g><path style="opacity:1" fill="#1a1a3a" d="M 21.5,16.5 C 22.1667,16.5 22.5,16.8333 22.5,17.5C 22.5,18.8333 22.5,20.1667 22.5,21.5C 21.6618,21.8417 21.3284,22.5084 21.5,23.5C 21.5,24.1667 21.1667,24.5 20.5,24.5C 20.1667,24.5 19.8333,24.5 19.5,24.5C 19.4226,23.2502 18.756,22.4169 17.5,22C 18.3802,20.6439 18.7135,19.1439 18.5,17.5C 19.1174,17.6107 19.6174,17.944 20,18.5C 20.2784,17.5842 20.7784,16.9175 21.5,16.5 Z"/></g>
<g><path style="opacity:1" fill="#5d5c5c" d="M 22.5,21.5 C 23.5,21.5 24.5,21.5 25.5,21.5C 25.2927,24.2406 24.2927,26.5739 22.5,28.5C 22.7845,26.5853 22.4511,24.9187 21.5,23.5C 21.3284,22.5084 21.6618,21.8417 22.5,21.5 Z"/></g>
<g><path style="opacity:1" fill="#937c3c" d="M 13.5,19.5 C 13.8333,20.5 14.5,21.1667 15.5,21.5C 14.8902,22.391 14.5569,23.391 14.5,24.5C 14.1667,24.5 13.8333,24.5 13.5,24.5C 13.5323,22.3812 12.5323,21.0478 10.5,20.5C 10.369,19.7611 10.5357,19.0944 11,18.5C 11.6708,19.2524 12.5041,19.5858 13.5,19.5 Z"/></g>
<g><path style="opacity:1" fill="#333149" d="M 10.5,20.5 C 10.3433,21.8734 10.51,23.2068 11,24.5C 11.9772,25.7736 12.8106,25.7736 13.5,24.5C 13.8333,24.5 14.1667,24.5 14.5,24.5C 15.2389,24.369 15.9056,24.5357 16.5,25C 15.1772,25.8159 14.5106,26.9826 14.5,28.5C 14.1667,28.5 13.8333,28.5 13.5,28.5C 12.7095,27.5987 11.7095,26.9321 10.5,26.5C 9.89022,25.609 9.55688,24.609 9.5,23.5C 9.5,22.8333 9.16667,22.5 8.5,22.5C 8.5,22.1667 8.5,21.8333 8.5,21.5C 9.16667,21.1667 9.83333,20.8333 10.5,20.5 Z"/></g>
<g><path style="opacity:1" fill="#191b3a" d="M 10.5,20.5 C 12.5323,21.0478 13.5323,22.3812 13.5,24.5C 12.8106,25.7736 11.9772,25.7736 11,24.5C 10.51,23.2068 10.3433,21.8734 10.5,20.5 Z"/></g>
<g><path style="opacity:0.078" fill="#685e56" d="M 8.5,22.5 C 9.16667,22.5 9.5,22.8333 9.5,23.5C 8.60305,24.5981 7.76971,24.5981 7,23.5C 6.53566,24.0944 6.36899,24.7611 6.5,25.5C 5.59603,24.791 5.26269,23.791 5.5,22.5C 5.28099,21.325 5.61432,20.325 6.5,19.5C 7.17566,20.6016 7.84233,21.6016 8.5,22.5 Z"/></g>
<g><path style="opacity:0.953" fill="#948374" d="M 9.5,23.5 C 9.55688,24.609 9.89022,25.609 10.5,26.5C 9.5,26.8333 8.83333,27.5 8.5,28.5C 7.09368,28.0269 6.42702,27.0269 6.5,25.5C 6.36899,24.7611 6.53566,24.0944 7,23.5C 7.76971,24.5981 8.60305,24.5981 9.5,23.5 Z"/></g>
<g><path style="opacity:1" fill="#25243e" d="M 15.5,21.5 C 16.2362,23.2294 17.5695,24.2294 19.5,24.5C 19.8333,24.5 20.1667,24.5 20.5,24.5C 20.4431,25.609 20.1098,26.609 19.5,27.5C 17.8828,28.038 16.2161,28.3713 14.5,28.5C 14.5106,26.9826 15.1772,25.8159 16.5,25C 15.9056,24.5357 15.2389,24.369 14.5,24.5C 14.5569,23.391 14.8902,22.391 15.5,21.5 Z"/></g>
<g><path style="opacity:0.998" fill="#8b8b89" d="M 21.5,23.5 C 22.4511,24.9187 22.7845,26.5853 22.5,28.5C 21.8333,29.1667 21.1667,29.8333 20.5,30.5C 20.1667,30.5 19.8333,30.5 19.5,30.5C 19.5,29.5 19.5,28.5 19.5,27.5C 20.1098,26.609 20.4431,25.609 20.5,24.5C 21.1667,24.5 21.5,24.1667 21.5,23.5 Z"/></g>
<g><path style="opacity:0.804" fill="#78726b" d="M 10.5,26.5 C 11.7095,26.9321 12.7095,27.5987 13.5,28.5C 14.8021,30.0276 16.4687,31.0276 18.5,31.5C 16.1667,31.5 13.8333,31.5 11.5,31.5C 10.3065,30.7281 9.30646,29.7281 8.5,28.5C 8.83333,27.5 9.5,26.8333 10.5,26.5 Z"/></g>
<g><path style="opacity:1" fill="#d2d6d5" d="M 19.5,27.5 C 19.5,28.5 19.5,29.5 19.5,30.5C 19.5,30.8333 19.5,31.1667 19.5,31.5C 19.1667,31.5 18.8333,31.5 18.5,31.5C 16.4687,31.0276 14.8021,30.0276 13.5,28.5C 13.8333,28.5 14.1667,28.5 14.5,28.5C 16.2161,28.3713 17.8828,28.038 19.5,27.5 Z"/></g>
<g><path style="opacity:0.004" fill="#fefffe" d="M 20.5,30.5 C 21.1667,30.5 21.5,30.8333 21.5,31.5C 21.1667,31.1667 20.8333,30.8333 20.5,30.5 Z"/></g>
</svg>
